# Blender v2.68 (sub 0) OBJ File: ''
# www.blender.org
o Cone
v 0.000000 2.051123 -1.000000
v -0.382683 2.051123 -0.923879
v -0.707107 2.051123 -0.707107
v -0.923879 2.051123 -0.382683
v -1.000000 2.051123 0.000000
v 0.000000 0.051123 -0.000001
v -0.923879 2.051123 0.382684
v -0.707107 2.051123 0.707107
v -0.382683 2.051123 0.923880
v -0.000000 2.051123 1.000000
v 0.382683 2.051123 0.923880
v 0.707107 2.051123 0.707107
v 0.923880 2.051123 0.382684
v 1.000000 2.051123 0.000000
v 0.923880 2.051123 -0.382684
v 0.707107 2.051123 -0.707107
v 0.382683 2.051123 -0.923880
v 0.000000 2.051123 -1.000000
v -0.382683 2.051123 -0.923879
v -0.707107 2.051123 -0.707107
v -0.923879 2.051123 -0.382683
v -1.000000 2.051123 0.000000
v -0.923879 2.051123 0.382684
v -0.707107 2.051123 0.707107
v -0.382683 2.051123 0.923880
v -0.000000 2.051123 1.000000
v 0.382683 2.051123 0.923880
v 0.707107 2.051123 0.707107
v 0.923880 2.051123 0.382684
v 1.000000 2.051123 0.000000
v 0.923880 2.051123 -0.382684
v 0.707107 2.051123 -0.707107
v 0.382683 2.051123 -0.923880
vn 0.632435 -0.447188 -0.632435
vn 0.000000 -1.000000 0.000000
vn 0.342265 -0.447188 -0.826319
vn 0.000000 -0.447188 -0.894406
vn -0.342265 -0.447188 -0.826319
vn -0.632435 -0.447188 -0.632435
vn 0.826319 -0.447188 -0.342265
vn 0.894406 -0.447188 0.000000
vn 0.826319 -0.447188 0.342265
vn 0.632435 -0.447188 0.632435
vn 0.342265 -0.447188 0.826319
vn 0.000000 -0.447188 0.894406
vn -0.342265 -0.447188 0.826319
vn -0.632435 -0.447188 0.632435
vn -0.826319 -0.447188 0.342265
vn -0.894406 -0.447188 0.000000
vn -0.826319 -0.447188 -0.342265
vn 0.000000 1.000000 0.000000
s 1
f 16//1 6//2 17//3
f 1//4 6//2 2//5
f 17//3 6//2 1//4
f 2//5 6//2 3//6
f 15//7 6//2 16//1
f 14//8 6//2 15//7
f 13//9 6//2 14//8
f 12//10 6//2 13//9
f 11//11 6//2 12//10
f 10//12 6//2 11//11
f 9//13 6//2 10//12
f 8//14 6//2 9//13
f 7//15 6//2 8//14
f 5//16 6//2 7//15
f 4//17 6//2 5//16
f 3//6 6//2 4//17
f 18//18 19//18 33//18
f 30//18 28//18 29//18
f 32//18 30//18 31//18
f 32//18 28//18 30//18
f 32//18 27//18 28//18
f 33//18 27//18 32//18
f 33//18 19//18 27//18
f 19//18 20//18 27//18
f 27//18 20//18 26//18
f 20//18 21//18 26//18
f 21//18 22//18 26//18
f 22//18 23//18 26//18
f 23//18 24//18 26//18
f 24//18 25//18 26//18
